<svg xmlns="http://www.w3.org/2000/svg" viewBox="0 0 900 1100" width="900" height="1100" role="img" aria-label="Abstract stage lighting artwork">
  <defs>
    <linearGradient id="hp" x1="0.2" y1="0" x2="0.8" y2="1">
      <stop offset="0" stop-color="#0a84ff" stop-opacity="0.9"/>
      <stop offset="0.5" stop-color="#0b1020"/>
      <stop offset="1" stop-color="#ff2d55" stop-opacity="0.75"/>
    </linearGradient>
    <radialGradient id="hpg" cx="0.5" cy="0.3" r="0.7">
      <stop offset="0" stop-color="#ffffff" stop-opacity="0.35"/>
      <stop offset="1" stop-color="#ffffff" stop-opacity="0"/>
    </radialGradient>
  </defs>
  <rect width="900" height="1100" fill="#060a14"/>
  <g opacity="0.9">
    <path d="M450 -60 L900 700 L0 700 Z" fill="url(#hp)" opacity="0.55"/>
    <path d="M450 40 L760 720 L140 720 Z" fill="#0a84ff" opacity="0.28"/>
    <path d="M450 40 L620 760 L280 760 Z" fill="#4aa8ff" opacity="0.22"/>
  </g>
  <rect width="900" height="1100" fill="url(#hpg)"/>
  <circle cx="247" cy="284" r="3.1" fill="#ffffff" opacity="0.32"/><circle cx="328" cy="710" r="1.1" fill="#ffffff" opacity="0.32"/><circle cx="784" cy="296" r="3.5" fill="#ffffff" opacity="0.42"/><circle cx="291" cy="127" r="3.1" fill="#ffffff" opacity="0.48"/><circle cx="783" cy="898" r="4.3" fill="#ffffff" opacity="0.37"/><circle cx="848" cy="288" r="3.6" fill="#ffffff" opacity="0.32"/><circle cx="571" cy="5" r="2.1" fill="#ffffff" opacity="0.43"/><circle cx="566" cy="272" r="2.8" fill="#ffffff" opacity="0.34"/><circle cx="665" cy="451" r="2.2" fill="#ffffff" opacity="0.64"/><circle cx="369" cy="606" r="4.2" fill="#ffffff" opacity="0.19"/><circle cx="669" cy="174" r="4.5" fill="#ffffff" opacity="0.61"/><circle cx="784" cy="84" r="2.4" fill="#ffffff" opacity="0.59"/><circle cx="705" cy="630" r="1.6" fill="#ffffff" opacity="0.29"/><circle cx="805" cy="914" r="2.8" fill="#ffffff" opacity="0.31"/><circle cx="874" cy="408" r="2.0" fill="#ffffff" opacity="0.33"/><circle cx="194" cy="176" r="1.4" fill="#ffffff" opacity="0.57"/><circle cx="545" cy="486" r="1.8" fill="#ffffff" opacity="0.40"/><circle cx="718" cy="597" r="3.0" fill="#ffffff" opacity="0.58"/><circle cx="180" cy="184" r="3.5" fill="#ffffff" opacity="0.63"/><circle cx="9" cy="1052" r="3.4" fill="#ffffff" opacity="0.59"/><circle cx="289" cy="352" r="4.0" fill="#ffffff" opacity="0.50"/><circle cx="556" cy="883" r="2.7" fill="#ffffff" opacity="0.41"/><circle cx="210" cy="568" r="1.4" fill="#ffffff" opacity="0.28"/><circle cx="539" cy="425" r="3.3" fill="#ffffff" opacity="0.54"/><circle cx="333" cy="260" r="2.6" fill="#ffffff" opacity="0.57"/><circle cx="677" cy="1071" r="1.9" fill="#ffffff" opacity="0.25"/><circle cx="542" cy="439" r="4.3" fill="#ffffff" opacity="0.27"/><circle cx="124" cy="434" r="2.5" fill="#ffffff" opacity="0.32"/><circle cx="297" cy="562" r="3.0" fill="#ffffff" opacity="0.63"/><circle cx="283" cy="245" r="4.2" fill="#ffffff" opacity="0.63"/><circle cx="345" cy="402" r="2.8" fill="#ffffff" opacity="0.37"/><circle cx="363" cy="562" r="2.7" fill="#ffffff" opacity="0.46"/><circle cx="658" cy="347" r="2.7" fill="#ffffff" opacity="0.24"/><circle cx="854" cy="96" r="3.8" fill="#ffffff" opacity="0.19"/><circle cx="9" cy="110" r="2.8" fill="#ffffff" opacity="0.17"/><circle cx="547" cy="459" r="3.5" fill="#ffffff" opacity="0.61"/><circle cx="776" cy="262" r="1.7" fill="#ffffff" opacity="0.50"/><circle cx="575" cy="35" r="3.7" fill="#ffffff" opacity="0.21"/><circle cx="76" cy="1082" r="1.2" fill="#ffffff" opacity="0.59"/><circle cx="189" cy="558" r="4.1" fill="#ffffff" opacity="0.56"/>
  <g transform="translate(450 620)">
    <circle r="150" fill="#0b1020" stroke="#0a84ff" stroke-width="4" opacity="0.95"/>
    <circle r="150" fill="none" stroke="#ffffff" stroke-opacity="0.2" stroke-width="1.5"/>
    <path d="M -46 -74 L 92 0 L -46 74 Z" fill="#ffffff"/>
  </g>
  <g transform="translate(450 900)" opacity="0.5">
    <rect x="-300" y="0" width="600" height="6" rx="3" fill="#0a84ff"/>
    <rect x="-200" y="30" width="400" height="4" rx="2" fill="#ff2d55"/>
    <rect x="-120" y="54" width="240" height="4" rx="2" fill="#ffb020"/>
  </g>
</svg>
