<svg xmlns="http://www.w3.org/2000/svg" viewBox="0 0 800 800" width="800" height="800" role="img" aria-label="BG">
  <defs>
    <linearGradient id="tbg-vg" x1="0" y1="0" x2="1" y2="1">
      <stop offset="0" stop-color="hsl(212 65% 14%)"/>
      <stop offset="1" stop-color="#080d1a"/>
    </linearGradient>
    <radialGradient id="tglow-vg" cx="0.5" cy="0.42" r="0.5">
      <stop offset="0" stop-color="hsl(195 100% 62%)" stop-opacity="0.45"/>
      <stop offset="1" stop-color="hsl(195 100% 62%)" stop-opacity="0"/>
    </radialGradient>
  </defs>

  <rect width="800" height="800" fill="url(#tbg-vg)"/>
  <rect x="-260" y="-200" width="58" height="1200" fill="hsl(212 95% 60%)" opacity="0.14" transform="rotate(22 400 400)"/><rect x="-90" y="-200" width="48" height="1200" fill="hsl(195 95% 60%)" opacity="0.09" transform="rotate(22 400 400)"/><rect x="80" y="-200" width="66" height="1200" fill="hsl(212 95% 60%)" opacity="0.11" transform="rotate(22 400 400)"/><rect x="250" y="-200" width="66" height="1200" fill="hsl(195 95% 60%)" opacity="0.12" transform="rotate(22 400 400)"/><rect x="420" y="-200" width="49" height="1200" fill="hsl(212 95% 60%)" opacity="0.13" transform="rotate(22 400 400)"/><rect x="590" y="-200" width="73" height="1200" fill="hsl(195 95% 60%)" opacity="0.06" transform="rotate(22 400 400)"/><rect x="760" y="-200" width="106" height="1200" fill="hsl(212 95% 60%)" opacity="0.10" transform="rotate(22 400 400)"/>
  <rect width="800" height="800" fill="url(#tglow-vg)"/>
  <circle cx="400" cy="400" r="248" fill="none" stroke="#ffffff" stroke-opacity="0.14" stroke-width="2"/>
  <circle cx="400" cy="400" r="196" fill="#ffffff" fill-opacity="0.05"/>
  <text x="400" y="400" text-anchor="middle" dominant-baseline="central"
        font-family="Impact, 'Arial Black', system-ui, sans-serif" font-size="188"
        fill="#ffffff" fill-opacity="0.9" letter-spacing="-6">BG</text>
</svg>
