<svg xmlns="http://www.w3.org/2000/svg" viewBox="0 0 1280 720" width="1280" height="720" role="img" aria-label="1-100">
  <defs>
    <linearGradient id="bg-ag" x1="0" y1="0" x2="1" y2="1">
      <stop offset="0" stop-color="hsl(275 70% 12%)"/>
      <stop offset="0.55" stop-color="#070b16"/>
      <stop offset="1" stop-color="hsl(340 70% 14%)"/>
    </linearGradient>
    <radialGradient id="glow-ag" cx="0.72" cy="0.5" r="0.55">
      <stop offset="0" stop-color="hsl(275 100% 60%)" stop-opacity="0.55"/>
      <stop offset="1" stop-color="hsl(275 100% 60%)" stop-opacity="0"/>
    </radialGradient>
    <linearGradient id="type-ag" x1="0" y1="0" x2="1" y2="0">
      <stop offset="0" stop-color="#ffffff" stop-opacity="0.16"/>
      <stop offset="1" stop-color="#ffffff" stop-opacity="0.03"/>
    </linearGradient>
  </defs>

  <rect width="1280" height="720" fill="url(#bg-ag)"/>
  <rect width="1280" height="720" fill="url(#glow-ag)"/>
  <circle cx="1070" cy="360" r="220" fill="none" stroke="hsl(275 95% 62%)" stroke-width="2" opacity="0.30"/><circle cx="1070" cy="360" r="330" fill="none" stroke="hsl(275 95% 62%)" stroke-width="1.7" opacity="0.24"/><circle cx="1070" cy="360" r="450" fill="none" stroke="hsl(275 95% 62%)" stroke-width="1.4" opacity="0.18"/><circle cx="1070" cy="360" r="580" fill="none" stroke="hsl(275 95% 62%)" stroke-width="1.1" opacity="0.12"/>
  <rect x="329" y="192" width="20" height="10" rx="3" fill="hsl(340 95% 62%)" opacity="0.48" transform="rotate(253 329 192)"/><rect x="36" y="351" width="27" height="14" rx="3" fill="hsl(340 95% 62%)" opacity="0.32" transform="rotate(271 36 351)"/><rect x="723" y="108" width="11" height="6" rx="3" fill="hsl(275 95% 62%)" opacity="0.35" transform="rotate(53 723 108)"/><circle cx="637" cy="189" r="6" fill="hsl(275 95% 62%)" opacity="0.56"/><circle cx="1274" cy="62" r="13" fill="hsl(340 95% 62%)" opacity="0.47"/><rect x="482" y="519" width="18" height="9" rx="3" fill="hsl(275 95% 62%)" opacity="0.39" transform="rotate(141 482 519)"/><circle cx="477" cy="307" r="8" fill="hsl(275 95% 62%)" opacity="0.28"/><rect x="1270" y="515" width="20" height="10" rx="3" fill="hsl(340 95% 62%)" opacity="0.44" transform="rotate(243 1270 515)"/><rect x="644" y="383" width="30" height="15" rx="3" fill="hsl(275 95% 62%)" opacity="0.41" transform="rotate(349 644 383)"/><rect x="1279" y="232" width="20" height="10" rx="3" fill="hsl(340 95% 62%)" opacity="0.49" transform="rotate(91 1279 232)"/><rect x="1139" y="148" width="26" height="13" rx="3" fill="hsl(340 95% 62%)" opacity="0.20" transform="rotate(321 1139 148)"/><rect x="419" y="238" width="20" height="10" rx="3" fill="hsl(275 95% 62%)" opacity="0.31" transform="rotate(284 419 238)"/><circle cx="600" cy="280" r="4" fill="hsl(275 95% 62%)" opacity="0.49"/><rect x="409" y="274" width="18" height="9" rx="3" fill="hsl(340 95% 62%)" opacity="0.45" transform="rotate(102 409 274)"/><rect x="230" y="24" width="13" height="6" rx="3" fill="hsl(340 95% 62%)" opacity="0.56" transform="rotate(77 230 24)"/><rect x="406" y="523" width="20" height="10" rx="3" fill="hsl(275 95% 62%)" opacity="0.45" transform="rotate(111 406 523)"/><rect x="565" y="579" width="26" height="13" rx="3" fill="hsl(340 95% 62%)" opacity="0.26" transform="rotate(123 565 579)"/><circle cx="208" cy="523" r="13" fill="hsl(340 95% 62%)" opacity="0.38"/><circle cx="582" cy="2" r="8" fill="hsl(275 95% 62%)" opacity="0.57"/><circle cx="792" cy="521" r="14" fill="hsl(275 95% 62%)" opacity="0.35"/><rect x="70" y="659" width="13" height="6" rx="3" fill="hsl(340 95% 62%)" opacity="0.53" transform="rotate(92 70 659)"/><rect x="211" y="112" width="31" height="15" rx="3" fill="hsl(340 95% 62%)" opacity="0.25" transform="rotate(276 211 112)"/><circle cx="490" cy="178" r="15" fill="hsl(340 95% 62%)" opacity="0.56"/><rect x="1269" y="301" width="20" height="10" rx="3" fill="hsl(340 95% 62%)" opacity="0.50" transform="rotate(239 1269 301)"/><rect x="266" y="382" width="14" height="7" rx="3" fill="hsl(340 95% 62%)" opacity="0.37" transform="rotate(86 266 382)"/><rect x="1257" y="382" width="32" height="16" rx="3" fill="hsl(275 95% 62%)" opacity="0.33" transform="rotate(193 1257 382)"/>

  <!-- play glyph -->
  <g transform="translate(1070 360)">
    <circle r="86" fill="#ffffff" opacity="0.1"/>
    <circle r="86" fill="none" stroke="#ffffff" stroke-opacity="0.35" stroke-width="3"/>
    <path d="M -24 -38 L 46 0 L -24 38 Z" fill="#ffffff" opacity="0.9"/>
  </g>

  <text x="72" y="624" font-family="Impact, 'Arial Black', system-ui, sans-serif"
        font-size="132" fill="url(#type-ag)" letter-spacing="-4">1-100</text>
  <rect x="72" y="658" width="150" height="8" rx="4" fill="hsl(340 95% 60%)"/>
</svg>
