<svg xmlns="http://www.w3.org/2000/svg" viewBox="0 0 1280 720" width="1280" height="720" role="img" aria-label="456">
  <defs>
    <linearGradient id="bg-sg" x1="0" y1="0" x2="1" y2="1">
      <stop offset="0" stop-color="hsl(210 70% 12%)"/>
      <stop offset="0.55" stop-color="#070b16"/>
      <stop offset="1" stop-color="hsl(340 70% 14%)"/>
    </linearGradient>
    <radialGradient id="glow-sg" cx="0.72" cy="0.5" r="0.55">
      <stop offset="0" stop-color="hsl(210 100% 60%)" stop-opacity="0.55"/>
      <stop offset="1" stop-color="hsl(210 100% 60%)" stop-opacity="0"/>
    </radialGradient>
    <linearGradient id="type-sg" x1="0" y1="0" x2="1" y2="0">
      <stop offset="0" stop-color="#ffffff" stop-opacity="0.16"/>
      <stop offset="1" stop-color="#ffffff" stop-opacity="0.03"/>
    </linearGradient>
  </defs>

  <rect width="1280" height="720" fill="url(#bg-sg)"/>
  <rect width="1280" height="720" fill="url(#glow-sg)"/>
  <circle cx="1070" cy="360" r="220" fill="none" stroke="hsl(210 95% 62%)" stroke-width="2" opacity="0.30"/><circle cx="1070" cy="360" r="330" fill="none" stroke="hsl(210 95% 62%)" stroke-width="1.7" opacity="0.24"/><circle cx="1070" cy="360" r="450" fill="none" stroke="hsl(210 95% 62%)" stroke-width="1.4" opacity="0.18"/><circle cx="1070" cy="360" r="580" fill="none" stroke="hsl(210 95% 62%)" stroke-width="1.1" opacity="0.12"/>
  <rect x="308" y="199" width="17" height="9" rx="3" fill="hsl(210 95% 62%)" opacity="0.52" transform="rotate(27 308 199)"/><rect x="919" y="75" width="14" height="7" rx="3" fill="hsl(340 95% 62%)" opacity="0.32" transform="rotate(284 919 75)"/><rect x="663" y="462" width="18" height="9" rx="3" fill="hsl(210 95% 62%)" opacity="0.34" transform="rotate(172 663 462)"/><rect x="938" y="556" width="9" height="4" rx="3" fill="hsl(340 95% 62%)" opacity="0.41" transform="rotate(109 938 556)"/><rect x="463" y="665" width="29" height="14" rx="3" fill="hsl(210 95% 62%)" opacity="0.20" transform="rotate(262 463 665)"/><circle cx="993" cy="23" r="7" fill="hsl(340 95% 62%)" opacity="0.29"/><circle cx="961" cy="675" r="13" fill="hsl(340 95% 62%)" opacity="0.42"/><rect x="528" y="183" width="24" height="12" rx="3" fill="hsl(340 95% 62%)" opacity="0.48" transform="rotate(164 528 183)"/><rect x="46" y="498" width="18" height="9" rx="3" fill="hsl(340 95% 62%)" opacity="0.58" transform="rotate(210 46 498)"/><rect x="210" y="29" width="21" height="11" rx="3" fill="hsl(340 95% 62%)" opacity="0.47" transform="rotate(100 210 29)"/><rect x="259" y="390" width="13" height="7" rx="3" fill="hsl(340 95% 62%)" opacity="0.24" transform="rotate(223 259 390)"/><rect x="894" y="707" width="9" height="4" rx="3" fill="hsl(340 95% 62%)" opacity="0.50" transform="rotate(93 894 707)"/><circle cx="408" cy="702" r="11" fill="hsl(210 95% 62%)" opacity="0.19"/><circle cx="489" cy="118" r="9" fill="hsl(340 95% 62%)" opacity="0.56"/><rect x="1167" y="164" width="24" height="12" rx="3" fill="hsl(340 95% 62%)" opacity="0.45" transform="rotate(164 1167 164)"/><circle cx="302" cy="376" r="13" fill="hsl(210 95% 62%)" opacity="0.54"/><rect x="707" y="71" width="28" height="14" rx="3" fill="hsl(210 95% 62%)" opacity="0.25" transform="rotate(257 707 71)"/><circle cx="461" cy="50" r="4" fill="hsl(340 95% 62%)" opacity="0.41"/><rect x="552" y="278" width="32" height="16" rx="3" fill="hsl(210 95% 62%)" opacity="0.48" transform="rotate(151 552 278)"/><rect x="192" y="469" width="21" height="10" rx="3" fill="hsl(340 95% 62%)" opacity="0.31" transform="rotate(135 192 469)"/><rect x="642" y="297" width="24" height="12" rx="3" fill="hsl(340 95% 62%)" opacity="0.38" transform="rotate(215 642 297)"/><rect x="816" y="485" width="26" height="13" rx="3" fill="hsl(210 95% 62%)" opacity="0.28" transform="rotate(276 816 485)"/><circle cx="918" cy="449" r="11" fill="hsl(210 95% 62%)" opacity="0.21"/><circle cx="178" cy="523" r="17" fill="hsl(340 95% 62%)" opacity="0.57"/><rect x="289" y="292" width="15" height="8" rx="3" fill="hsl(340 95% 62%)" opacity="0.38" transform="rotate(357 289 292)"/><rect x="836" y="642" width="24" height="12" rx="3" fill="hsl(210 95% 62%)" opacity="0.20" transform="rotate(31 836 642)"/>

  <!-- play glyph -->
  <g transform="translate(1070 360)">
    <circle r="86" fill="#ffffff" opacity="0.1"/>
    <circle r="86" fill="none" stroke="#ffffff" stroke-opacity="0.35" stroke-width="3"/>
    <path d="M -24 -38 L 46 0 L -24 38 Z" fill="#ffffff" opacity="0.9"/>
  </g>

  <text x="72" y="624" font-family="Impact, 'Arial Black', system-ui, sans-serif"
        font-size="132" fill="url(#type-sg)" letter-spacing="-4">456</text>
  <rect x="72" y="658" width="150" height="8" rx="4" fill="hsl(340 95% 60%)"/>
</svg>
