<svg xmlns="http://www.w3.org/2000/svg" viewBox="0 0 1280 720" width="1280" height="720" role="img" aria-label="100">
  <defs>
    <linearGradient id="bg-we" x1="0" y1="0" x2="1" y2="1">
      <stop offset="0" stop-color="hsl(190 70% 12%)"/>
      <stop offset="0.55" stop-color="#070b16"/>
      <stop offset="1" stop-color="hsl(150 70% 14%)"/>
    </linearGradient>
    <radialGradient id="glow-we" cx="0.72" cy="0.5" r="0.55">
      <stop offset="0" stop-color="hsl(190 100% 60%)" stop-opacity="0.55"/>
      <stop offset="1" stop-color="hsl(190 100% 60%)" stop-opacity="0"/>
    </radialGradient>
    <linearGradient id="type-we" x1="0" y1="0" x2="1" y2="0">
      <stop offset="0" stop-color="#ffffff" stop-opacity="0.16"/>
      <stop offset="1" stop-color="#ffffff" stop-opacity="0.03"/>
    </linearGradient>
  </defs>

  <rect width="1280" height="720" fill="url(#bg-we)"/>
  <rect width="1280" height="720" fill="url(#glow-we)"/>
  <circle cx="1070" cy="360" r="220" fill="none" stroke="hsl(190 95% 62%)" stroke-width="2" opacity="0.30"/><circle cx="1070" cy="360" r="330" fill="none" stroke="hsl(190 95% 62%)" stroke-width="1.7" opacity="0.24"/><circle cx="1070" cy="360" r="450" fill="none" stroke="hsl(190 95% 62%)" stroke-width="1.4" opacity="0.18"/><circle cx="1070" cy="360" r="580" fill="none" stroke="hsl(190 95% 62%)" stroke-width="1.1" opacity="0.12"/>
  <circle cx="335" cy="191" r="4" fill="hsl(150 95% 62%)" opacity="0.57"/><circle cx="136" cy="60" r="9" fill="hsl(190 95% 62%)" opacity="0.21"/><rect x="98" y="199" width="29" height="15" rx="3" fill="hsl(150 95% 62%)" opacity="0.25" transform="rotate(113 98 199)"/><rect x="881" y="458" width="33" height="17" rx="3" fill="hsl(150 95% 62%)" opacity="0.40" transform="rotate(274 881 458)"/><rect x="1156" y="631" width="11" height="6" rx="3" fill="hsl(190 95% 62%)" opacity="0.34" transform="rotate(94 1156 631)"/><circle cx="674" cy="103" r="10" fill="hsl(150 95% 62%)" opacity="0.41"/><circle cx="676" cy="395" r="16" fill="hsl(150 95% 62%)" opacity="0.34"/><circle cx="1136" cy="599" r="16" fill="hsl(150 95% 62%)" opacity="0.32"/><rect x="154" y="534" width="13" height="7" rx="3" fill="hsl(190 95% 62%)" opacity="0.47" transform="rotate(24 154 534)"/><rect x="906" y="643" width="27" height="13" rx="3" fill="hsl(190 95% 62%)" opacity="0.29" transform="rotate(89 906 643)"/><circle cx="399" cy="627" r="11" fill="hsl(190 95% 62%)" opacity="0.29"/><circle cx="940" cy="301" r="11" fill="hsl(190 95% 62%)" opacity="0.47"/><rect x="968" y="534" width="18" height="9" rx="3" fill="hsl(150 95% 62%)" opacity="0.26" transform="rotate(79 968 534)"/><circle cx="1029" cy="133" r="6" fill="hsl(190 95% 62%)" opacity="0.22"/><circle cx="636" cy="529" r="8" fill="hsl(190 95% 62%)" opacity="0.38"/><rect x="112" y="200" width="12" height="6" rx="3" fill="hsl(150 95% 62%)" opacity="0.42" transform="rotate(276 112 200)"/><rect x="530" y="526" width="32" height="16" rx="3" fill="hsl(150 95% 62%)" opacity="0.46" transform="rotate(179 530 526)"/><circle cx="464" cy="101" r="15" fill="hsl(190 95% 62%)" opacity="0.47"/><rect x="269" y="654" width="32" height="16" rx="3" fill="hsl(150 95% 62%)" opacity="0.39" transform="rotate(217 269 654)"/><circle cx="302" cy="354" r="5" fill="hsl(150 95% 62%)" opacity="0.26"/><circle cx="1207" cy="29" r="15" fill="hsl(150 95% 62%)" opacity="0.56"/><rect x="59" y="199" width="12" height="6" rx="3" fill="hsl(190 95% 62%)" opacity="0.54" transform="rotate(96 59 199)"/><rect x="703" y="111" width="20" height="10" rx="3" fill="hsl(190 95% 62%)" opacity="0.55" transform="rotate(246 703 111)"/><rect x="901" y="246" width="10" height="5" rx="3" fill="hsl(150 95% 62%)" opacity="0.19" transform="rotate(226 901 246)"/><circle cx="260" cy="45" r="16" fill="hsl(150 95% 62%)" opacity="0.37"/><circle cx="403" cy="498" r="10" fill="hsl(150 95% 62%)" opacity="0.36"/>

  <!-- play glyph -->
  <g transform="translate(1070 360)">
    <circle r="86" fill="#ffffff" opacity="0.1"/>
    <circle r="86" fill="none" stroke="#ffffff" stroke-opacity="0.35" stroke-width="3"/>
    <path d="M -24 -38 L 46 0 L -24 38 Z" fill="#ffffff" opacity="0.9"/>
  </g>

  <text x="72" y="624" font-family="Impact, 'Arial Black', system-ui, sans-serif"
        font-size="132" fill="url(#type-we)" letter-spacing="-4">100</text>
  <rect x="72" y="658" width="150" height="8" rx="4" fill="hsl(150 95% 60%)"/>
</svg>
